<mxfile host="app.diagrams.net" agent="Mozilla/5.0 (Windows NT 10.0; Win64; x64) AppleWebKit/537.36 (KHTML, like Gecko) Chrome/135.0.0.0 Safari/537.36" version="26.2.14">
  <diagram name="Page-1" id="QH2SWNsuBdeZ9ySTIu0H">
    <mxGraphModel dx="2066" dy="777" grid="1" gridSize="10" guides="1" tooltips="1" connect="1" arrows="1" fold="1" page="1" pageScale="1" pageWidth="850" pageHeight="1100" math="0" shadow="0">
      <root>
        <mxCell id="0" />
        <mxCell id="1" parent="0" />
        <mxCell id="aMu6VvFlxeRH188qs7Ov-13" style="edgeStyle=orthogonalEdgeStyle;rounded=0;orthogonalLoop=1;jettySize=auto;html=1;exitX=0.5;exitY=1;exitDx=0;exitDy=0;entryX=0.5;entryY=0;entryDx=0;entryDy=0;" edge="1" parent="1" source="aMu6VvFlxeRH188qs7Ov-1" target="aMu6VvFlxeRH188qs7Ov-12">
          <mxGeometry relative="1" as="geometry" />
        </mxCell>
        <mxCell id="aMu6VvFlxeRH188qs7Ov-14" value="&lt;font style=&quot;font-size: 12px;&quot;&gt;Update Records&lt;/font&gt;" style="edgeLabel;html=1;align=center;verticalAlign=middle;resizable=0;points=[];" vertex="1" connectable="0" parent="aMu6VvFlxeRH188qs7Ov-13">
          <mxGeometry x="0.0167" y="2" relative="1" as="geometry">
            <mxPoint as="offset" />
          </mxGeometry>
        </mxCell>
        <mxCell id="aMu6VvFlxeRH188qs7Ov-1" value="Webhook Listener" style="rounded=1;whiteSpace=wrap;html=1;" vertex="1" parent="1">
          <mxGeometry x="360" y="180" width="120" height="60" as="geometry" />
        </mxCell>
        <mxCell id="aMu6VvFlxeRH188qs7Ov-6" style="edgeStyle=orthogonalEdgeStyle;rounded=0;orthogonalLoop=1;jettySize=auto;html=1;exitX=1;exitY=0.5;exitDx=0;exitDy=0;entryX=0.25;entryY=0;entryDx=0;entryDy=0;" edge="1" parent="1" source="aMu6VvFlxeRH188qs7Ov-9" target="aMu6VvFlxeRH188qs7Ov-1">
          <mxGeometry relative="1" as="geometry" />
        </mxCell>
        <mxCell id="aMu6VvFlxeRH188qs7Ov-2" value="Service Now&lt;div&gt;&lt;font style=&quot;font-size: 10px;&quot;&gt;(Webhook)&lt;/font&gt;&lt;/div&gt;" style="rounded=1;whiteSpace=wrap;html=1;" vertex="1" parent="1">
          <mxGeometry x="90" y="50" width="120" height="60" as="geometry" />
        </mxCell>
        <mxCell id="aMu6VvFlxeRH188qs7Ov-3" value="JIRA&lt;div&gt;&lt;font style=&quot;font-size: 10px;&quot;&gt;(Webhook)&lt;/font&gt;&lt;/div&gt;" style="rounded=1;whiteSpace=wrap;html=1;" vertex="1" parent="1">
          <mxGeometry x="620" y="50" width="120" height="60" as="geometry" />
        </mxCell>
        <mxCell id="aMu6VvFlxeRH188qs7Ov-7" style="edgeStyle=orthogonalEdgeStyle;rounded=0;orthogonalLoop=1;jettySize=auto;html=1;exitX=0;exitY=0.5;exitDx=0;exitDy=0;entryX=0.667;entryY=0;entryDx=0;entryDy=0;entryPerimeter=0;" edge="1" parent="1" source="aMu6VvFlxeRH188qs7Ov-8" target="aMu6VvFlxeRH188qs7Ov-1">
          <mxGeometry relative="1" as="geometry">
            <mxPoint x="442" y="180" as="targetPoint" />
          </mxGeometry>
        </mxCell>
        <mxCell id="aMu6VvFlxeRH188qs7Ov-10" value="" style="edgeStyle=orthogonalEdgeStyle;rounded=0;orthogonalLoop=1;jettySize=auto;html=1;exitX=0;exitY=0.5;exitDx=0;exitDy=0;" edge="1" parent="1" source="aMu6VvFlxeRH188qs7Ov-3" target="aMu6VvFlxeRH188qs7Ov-8">
          <mxGeometry relative="1" as="geometry">
            <mxPoint x="620" y="80" as="sourcePoint" />
            <mxPoint x="440" y="180" as="targetPoint" />
            <Array as="points">
              <mxPoint x="590" y="80" />
              <mxPoint x="590" y="80" />
            </Array>
          </mxGeometry>
        </mxCell>
        <mxCell id="aMu6VvFlxeRH188qs7Ov-8" value="Push Data" style="text;html=1;align=center;verticalAlign=middle;resizable=0;points=[];autosize=1;strokeColor=none;fillColor=none;" vertex="1" parent="1">
          <mxGeometry x="490" y="65" width="80" height="30" as="geometry" />
        </mxCell>
        <mxCell id="aMu6VvFlxeRH188qs7Ov-11" value="" style="edgeStyle=orthogonalEdgeStyle;rounded=0;orthogonalLoop=1;jettySize=auto;html=1;exitX=1;exitY=0.5;exitDx=0;exitDy=0;" edge="1" parent="1" source="aMu6VvFlxeRH188qs7Ov-2" target="aMu6VvFlxeRH188qs7Ov-9">
          <mxGeometry relative="1" as="geometry">
            <mxPoint x="210" y="80" as="sourcePoint" />
            <mxPoint x="390" y="180" as="targetPoint" />
          </mxGeometry>
        </mxCell>
        <mxCell id="aMu6VvFlxeRH188qs7Ov-9" value="Push Data" style="text;html=1;align=center;verticalAlign=middle;resizable=0;points=[];autosize=1;strokeColor=none;fillColor=none;" vertex="1" parent="1">
          <mxGeometry x="260" y="65" width="80" height="30" as="geometry" />
        </mxCell>
        <mxCell id="aMu6VvFlxeRH188qs7Ov-24" style="edgeStyle=orthogonalEdgeStyle;rounded=0;orthogonalLoop=1;jettySize=auto;html=1;exitX=0;exitY=0.5;exitDx=0;exitDy=0;" edge="1" parent="1" source="aMu6VvFlxeRH188qs7Ov-12">
          <mxGeometry relative="1" as="geometry">
            <mxPoint x="190" y="390" as="targetPoint" />
          </mxGeometry>
        </mxCell>
        <mxCell id="aMu6VvFlxeRH188qs7Ov-12" value="Work Flow Hub" style="rounded=1;whiteSpace=wrap;html=1;" vertex="1" parent="1">
          <mxGeometry x="360" y="360" width="120" height="60" as="geometry" />
        </mxCell>
        <mxCell id="aMu6VvFlxeRH188qs7Ov-15" value="DB" style="shape=cylinder3;whiteSpace=wrap;html=1;boundedLbl=1;backgroundOutline=1;size=15;" vertex="1" parent="1">
          <mxGeometry x="690" y="350" width="60" height="80" as="geometry" />
        </mxCell>
        <mxCell id="aMu6VvFlxeRH188qs7Ov-16" style="edgeStyle=orthogonalEdgeStyle;rounded=0;orthogonalLoop=1;jettySize=auto;html=1;exitX=1;exitY=0.5;exitDx=0;exitDy=0;entryX=0;entryY=0.5;entryDx=0;entryDy=0;entryPerimeter=0;" edge="1" parent="1" source="aMu6VvFlxeRH188qs7Ov-12" target="aMu6VvFlxeRH188qs7Ov-15">
          <mxGeometry relative="1" as="geometry" />
        </mxCell>
        <mxCell id="aMu6VvFlxeRH188qs7Ov-17" value="Normalized Data" style="text;html=1;align=center;verticalAlign=middle;resizable=0;points=[];autosize=1;strokeColor=none;fillColor=none;" vertex="1" parent="1">
          <mxGeometry x="530" y="368" width="110" height="30" as="geometry" />
        </mxCell>
        <mxCell id="aMu6VvFlxeRH188qs7Ov-22" style="edgeStyle=orthogonalEdgeStyle;rounded=0;orthogonalLoop=1;jettySize=auto;html=1;exitX=0.5;exitY=0;exitDx=0;exitDy=0;entryX=0.5;entryY=1;entryDx=0;entryDy=0;" edge="1" parent="1" source="aMu6VvFlxeRH188qs7Ov-18" target="aMu6VvFlxeRH188qs7Ov-12">
          <mxGeometry relative="1" as="geometry" />
        </mxCell>
        <mxCell id="aMu6VvFlxeRH188qs7Ov-23" style="edgeStyle=orthogonalEdgeStyle;rounded=0;orthogonalLoop=1;jettySize=auto;html=1;exitX=0;exitY=0.5;exitDx=0;exitDy=0;entryX=0.5;entryY=1;entryDx=0;entryDy=0;" edge="1" parent="1" source="aMu6VvFlxeRH188qs7Ov-18" target="aMu6VvFlxeRH188qs7Ov-19">
          <mxGeometry relative="1" as="geometry" />
        </mxCell>
        <mxCell id="aMu6VvFlxeRH188qs7Ov-18" value="Monitoring Service" style="rounded=1;whiteSpace=wrap;html=1;" vertex="1" parent="1">
          <mxGeometry x="360" y="560" width="120" height="60" as="geometry" />
        </mxCell>
        <mxCell id="aMu6VvFlxeRH188qs7Ov-19" value="Alert Service" style="rounded=1;whiteSpace=wrap;html=1;" vertex="1" parent="1">
          <mxGeometry x="70" y="360" width="120" height="60" as="geometry" />
        </mxCell>
        <mxCell id="aMu6VvFlxeRH188qs7Ov-20" value="Log File" style="shape=note;whiteSpace=wrap;html=1;backgroundOutline=1;darkOpacity=0.05;" vertex="1" parent="1">
          <mxGeometry x="680" y="540" width="80" height="100" as="geometry" />
        </mxCell>
        <mxCell id="aMu6VvFlxeRH188qs7Ov-21" style="edgeStyle=orthogonalEdgeStyle;rounded=0;orthogonalLoop=1;jettySize=auto;html=1;exitX=1;exitY=0.5;exitDx=0;exitDy=0;entryX=0;entryY=0.5;entryDx=0;entryDy=0;entryPerimeter=0;" edge="1" parent="1" source="aMu6VvFlxeRH188qs7Ov-18" target="aMu6VvFlxeRH188qs7Ov-20">
          <mxGeometry relative="1" as="geometry" />
        </mxCell>
        <mxCell id="aMu6VvFlxeRH188qs7Ov-25" value="Failure" style="text;html=1;align=center;verticalAlign=middle;resizable=0;points=[];autosize=1;strokeColor=none;fillColor=none;" vertex="1" parent="1">
          <mxGeometry x="230" y="368" width="60" height="30" as="geometry" />
        </mxCell>
        <mxCell id="aMu6VvFlxeRH188qs7Ov-26" value="Failure" style="text;html=1;align=center;verticalAlign=middle;resizable=0;points=[];autosize=1;strokeColor=none;fillColor=none;" vertex="1" parent="1">
          <mxGeometry x="160" y="588" width="60" height="30" as="geometry" />
        </mxCell>
        <mxCell id="aMu6VvFlxeRH188qs7Ov-27" value="Logging&amp;nbsp;&lt;div&gt;&lt;font style=&quot;font-size: 10px;&quot;&gt;(Response, Success, Failure)&lt;/font&gt;&lt;/div&gt;" style="text;html=1;align=center;verticalAlign=middle;resizable=0;points=[];autosize=1;strokeColor=none;fillColor=none;" vertex="1" parent="1">
          <mxGeometry x="510" y="588" width="150" height="40" as="geometry" />
        </mxCell>
      </root>
    </mxGraphModel>
  </diagram>
</mxfile>
